<svg xmlns="http://www.w3.org/2000/svg" aria-hidden="true" style="position:absolute;width:0;height:0;overflow:hidden">
  <defs>
    <symbol id="icon-burger" viewBox="0 0 46 32">
      <path stroke-linecap="round" stroke-width="3.429" d="M8.671 5.074H44M8.671 24.468H44M19.602 14.771H44"/>
    </symbol>
    <symbol id="icon-close" viewBox="0 0 32 32">
      <path stroke-linecap="round" stroke-linejoin="round" stroke-width="3" d="M24 8 8 24M8 8l16 16"/>
    </symbol>
    <symbol id="icon-facebook" viewBox="0 0 32 32">
      <path d="M19.52 4.64h.96v3.6h-1.2c-.48 0-.96 0-1.2.24s-.24.48-.24 1.04v1.28h2.64v3.04h-2.64v13.2h-4.08V13.76H11.6v-3.04h2.16V9.68c0-1.76.24-3.04.72-3.6.72-1.04 2.16-1.52 4.32-1.52.24.08.48.08.72.08z"/>
    </symbol>
    <symbol id="icon-instagram" viewBox="0 0 32 32">
      <path d="M28.718 10.756a9.264 9.264 0 0 0-.596-3.145 6.547 6.547 0 0 0-3.743-3.737 9.42 9.42 0 0 0-3.108-.596c-1.368-.061-1.801-.078-5.273-.078s-3.916 0-5.274.078a9.413 9.413 0 0 0-3.106.596 6.541 6.541 0 0 0-3.743 3.737 9.288 9.288 0 0 0-.596 3.101c-.061 1.367-.08 1.8-.08 5.265s0 3.909.08 5.265a9.335 9.335 0 0 0 .596 3.104 6.548 6.548 0 0 0 3.744 3.735 9.37 9.37 0 0 0 3.106.639c1.369.061 1.803.08 5.274.08s3.916 0 5.274-.08a9.362 9.362 0 0 0 3.108-.595 6.555 6.555 0 0 0 3.743-3.737 9.35 9.35 0 0 0 .596-3.104c.061-1.365.08-1.798.08-5.265-.003-3.466-.003-3.906-.082-5.264zM15.99 22.531c-3.631 0-6.572-2.936-6.572-6.561s2.941-6.561 6.572-6.561c3.628 0 6.572 2.936 6.572 6.561s-2.944 6.561-6.572 6.561zm6.834-11.835a1.53 1.53 0 1 1 0-3.06 1.53 1.53 0 1 1 0 3.06z"/>
      <path d="M15.992 19.976a4.004 4.004 0 1 0 0-8.009 4.004 4.004 0 0 0 0 8.009z"/>
    </symbol>
    <symbol id="icon-youtube" viewBox="0 0 32 32">
      <path d="M24.24 6c-1.36-.08-4.16-.16-8.4-.16h-.56c-4.08 0-6.8.08-8.16.24-1.84.16-3.12.64-3.84 1.28-.64.56-1.12 1.6-1.28 2.96-.08.88-.16 2.72-.16 5.52v.4c0 2.64.08 4.48.24 5.36.24 1.28.64 2.24 1.44 2.8.8.64 2.16 1.04 4.08 1.2 1.36.08 4.16.16 8.4.16h.56c4.08 0 6.8-.08 8.16-.24 1.84-.16 3.12-.64 3.84-1.28.64-.56 1.12-1.6 1.28-2.96.08-.88.16-2.72.16-5.52v-.4c0-2.64-.08-4.48-.24-5.36-.24-1.28-.64-2.24-1.44-2.8-.8-.64-2.16-1.04-4.08-1.2zm-3.12 9.84-8.8 5.28V10.56l8.8 5.28z"/>
    </symbol>
    <symbol id="icon-arrow" viewBox="0 0 26 26" fill="none"><path fill="currentColor" fill-rule="evenodd" d="M.517 10.817 11.752.476a1.875 1.875 0 0 1 2.496 0l11.235 10.341c.69.635.69 1.664 0 2.299a1.875 1.875 0 0 1-2.497 0l-8.22-7.568v18.827c0 .898-.791 1.625-1.766 1.625s-1.765-.727-1.765-1.625V5.548l-8.221 7.568a1.875 1.875 0 0 1-2.497 0 1.535 1.535 0 0 1 0-2.299Z" clip-rule="evenodd"/></symbol>
    <symbol id="icon-star" viewBox="0 0 34 32">
      <path fill="#eea10c" style="fill: var(--color3, #eea10c)" d="M14.89 2.282c0.737-2.268 3.945-2.268 4.682 0l2.080 6.402c0.33 1.014 1.275 1.701 2.341 1.701h6.731c2.384 0 3.376 3.051 1.447 4.453l-5.446 3.957c-0.863 0.627-1.224 1.738-0.894 2.752l2.080 6.402c0.737 2.268-1.859 4.154-3.788 2.752l-5.446-3.957c-0.863-0.627-2.031-0.627-2.894 0l-5.446 3.957c-1.929 1.402-4.525-0.484-3.788-2.752l2.080-6.402c0.33-1.014-0.031-2.125-0.894-2.752l-5.446-3.957c-1.929-1.402-0.938-4.453 1.447-4.453h6.731c1.066 0 2.012-0.687 2.341-1.701l2.080-6.402z"></path>
    </symbol>
    <symbol id="icon-quote" viewBox="0 0 36 32">
      <path fill="#f4f4f4" style="fill: var(--color2, #f4f4f4)" d="M7.813 17.132c2.182-0.865 3.932-0.638 5.25 0.679s1.709 3.418 1.174 6.3c-0.412 2.141-1.318 3.788-2.718 4.941-1.359 1.112-2.944 1.668-4.756 1.668-2.471 0-4.179-0.947-5.126-2.841-0.947-1.935-1.132-4.529-0.556-7.782 0.329-1.771 0.865-3.562 1.606-5.374s1.729-3.665 2.965-5.559c1.235-1.894 2.841-3.541 4.818-4.941s4.159-2.306 6.547-2.718l-0.618 6.547c-2.018 0.412-3.809 1.462-5.373 3.15-1.565 1.647-2.635 3.623-3.212 5.929zM26.404 17.132c2.182-0.865 3.932-0.638 5.25 0.679s1.709 3.418 1.173 6.3c-0.412 2.141-1.318 3.788-2.718 4.941-1.359 1.112-2.944 1.668-4.756 1.668-2.471 0-4.179-0.947-5.126-2.841-0.947-1.935-1.132-4.529-0.556-7.782 0.329-1.771 0.865-3.562 1.606-5.374s1.729-3.665 2.965-5.559 2.841-3.541 4.818-4.941c1.976-1.4 4.159-2.306 6.547-2.718l-0.618 6.547c-2.018 0.412-3.809 1.462-5.374 3.15-1.565 1.647-2.635 3.623-3.212 5.929z"></path>
    </symbol>
    <symbol id="icon-run-gray" viewBox="0 0 34 32">
      <path fill="#f4f4f4" style="fill: var(--color2, #f4f4f4)" opacity="0.2" d="M32 16c0 8.837-7.163 16-16 16s-16-7.163-16-16c0-8.837 7.163-16 16-16s16 7.163 16 16z"></path>
      <path fill="#f4f4f4" style="fill: var(--color2, #f4f4f4)" d="M24.729 11.907c-0.268-0.313-0.746-0.354-1.066-0.093l-2.099 1.723-0.965-2.337c-0.034-0.088-0.086-0.161-0.146-0.226-0.197-0.429-0.54-0.797-1.012-1.010-0.205-0.091-0.417-0.14-0.628-0.164-0.047-0.024-0.089-0.055-0.142-0.071l-3.694-1.006c-0.207-0.055-0.416-0.020-0.586 0.078-0.203 0.067-0.377 0.211-0.46 0.42l-1.391 3.495c-0.151 0.38 0.042 0.809 0.432 0.959 0.388 0.147 0.828-0.042 0.98-0.424l1.175-2.951 1.683 0.457c-0.041 0.065-0.085 0.126-0.119 0.195l-2.157 4.568c-0.031 0.067-0.048 0.135-0.070 0.205l-2.621 4.294-4.387 1.434c-0.497 0.363-0.602 1.046-0.235 1.531 0.369 0.486 1.071 0.589 1.566 0.231l4.489-1.511c0.137-0.098 0.237-0.225 0.313-0.363 0.056-0.058 0.121-0.105 0.164-0.178l1.563-2.56 2.774 2.31-2.968 3.268c-0.409 0.451-0.368 1.145 0.095 1.543 0.462 0.402 1.17 0.36 1.582-0.093l3.704-4.078c0.115-0.126 0.184-0.271 0.23-0.422 0.028-0.082 0.028-0.168 0.034-0.253 0-0.043 0.017-0.082 0.013-0.122-0.010-0.299-0.134-0.589-0.385-0.796l-2.553-2.127c0.184-0.171 0.34-0.375 0.453-0.614l1.654-3.499 0.53 1.379c0.022 0.122 0.064 0.243 0.153 0.343 0.080 0.093 0.182 0.155 0.29 0.198 0.011 0.005 0.024 0.007 0.038 0.010 0.069 0.024 0.139 0.047 0.211 0.050 0.085 0.008 0.172-0.003 0.259-0.027 0.002-0.001 0.003-0.001 0.003-0.001 0.023-0.005 0.047-0.001 0.070-0.011 0.123-0.046 0.217-0.122 0.298-0.212l3.013-2.499c0.32-0.263 0.185-0.729-0.084-1.042z"></path>
      <path fill="#f4f4f4" style="fill: var(--color2, #f4f4f4)" d="M20.919 10.126c1.166 0 2.111-0.924 2.111-2.063s-0.945-2.063-2.111-2.063c-1.166 0-2.111 0.924-2.111 2.063s0.945 2.063 2.111 2.063z"></path>
    </symbol>
    <symbol id="icon-run-black" viewBox="0 0 32 32">
      <path fill="#242424" style="fill: var(--color1, #242424)" d="M32 16c0 8.837-7.163 16-16 16s-16-7.163-16-16c0-8.837 7.163-16 16-16s16 7.163 16 16z"></path>
      <path fill="#f4f4f4" style="fill: var(--color2, #f4f4f4)" d="M25.098 11.634c-0.279-0.334-0.777-0.378-1.111-0.099l-2.188 1.838-1.006-2.493c-0.036-0.094-0.090-0.172-0.153-0.241-0.206-0.457-0.563-0.85-1.055-1.078-0.214-0.097-0.434-0.149-0.655-0.174-0.049-0.025-0.093-0.059-0.148-0.076l-3.85-1.073c-0.216-0.059-0.433-0.021-0.611 0.083-0.211 0.072-0.393 0.225-0.479 0.448l-1.45 3.728c-0.157 0.405 0.044 0.863 0.451 1.022 0.404 0.157 0.863-0.045 1.021-0.452l1.225-3.148 1.754 0.488c-0.043 0.069-0.089 0.134-0.124 0.208l-2.248 4.873c-0.032 0.072-0.050 0.144-0.073 0.218l-2.732 4.58-4.572 1.529c-0.518 0.387-0.627 1.116-0.245 1.633 0.385 0.519 1.116 0.628 1.632 0.246l4.679-1.612c0.143-0.104 0.247-0.24 0.326-0.387 0.059-0.062 0.126-0.112 0.171-0.189l1.629-2.731 2.891 2.464-3.094 3.487c-0.426 0.481-0.383 1.221 0.099 1.646 0.482 0.429 1.22 0.383 1.648-0.099l3.861-4.349c0.12-0.134 0.192-0.289 0.24-0.451 0.029-0.088 0.029-0.179 0.036-0.27 0-0.046 0.017-0.088 0.014-0.131-0.010-0.319-0.14-0.628-0.401-0.849l-2.661-2.269c0.192-0.183 0.355-0.4 0.473-0.655l1.724-3.733 0.552 1.471c0.023 0.131 0.067 0.259 0.159 0.366 0.083 0.099 0.189 0.165 0.303 0.211 0.012 0.006 0.025 0.007 0.039 0.010 0.072 0.025 0.144 0.050 0.219 0.053 0.089 0.008 0.179-0.003 0.27-0.029 0.002-0.001 0.003-0.001 0.003-0.001 0.024-0.006 0.049-0.001 0.073-0.012 0.128-0.048 0.226-0.131 0.311-0.226l3.14-2.665c0.334-0.281 0.193-0.777-0.088-1.111z"></path>
      <path fill="#f4f4f4" style="fill: var(--color2, #f4f4f4)" d="M21.126 9.735c1.215 0 2.201-0.985 2.201-2.201s-0.985-2.201-2.201-2.201c-1.215 0-2.201 0.985-2.201 2.201s0.985 2.201 2.201 2.201z"></path>
    </symbol>
  </defs>
</svg>
<symbol id="icon-trash" viewBox="0 0 32 32">
  <path d="M14.934 1.367c-1.493 0-2.423-0.065-3.402 0.434-0.746 0.38-1.35 0.984-1.73 1.73-0.465 0.912-0.408 1.847-0.402 3.168h-5.398c-0 0-0.001 0-0.001 0-0.718 0-1.3 0.582-1.3 1.3 0 0 0 0.001 0 0.001v-0c0 0 0 0 0 0.001 0 0.718 0.582 1.3 1.3 1.3 0 0 0.001 0 0.001 0h1.367v13.633c0 2.24-0.066 3.54 0.578 4.805 0.508 0.997 1.319 1.808 2.316 2.316 1.265 0.644 2.564 0.578 4.805 0.578h5.867c2.24 0 3.54 0.066 4.805-0.578 0.997-0.508 1.808-1.32 2.316-2.316 0.644-1.265 0.578-2.564 0.578-4.805v-13.633h1.367c0 0 0 0 0.001 0 0.718 0 1.3-0.582 1.3-1.3 0-0 0-0.001 0-0.001v0c0-0 0-0 0-0.001 0-0.718-0.582-1.3-1.3-1.3-0 0-0.001 0-0.001 0h-5.398c0.006-1.321 0.063-2.256-0.402-3.168-0.38-0.746-0.984-1.35-1.73-1.73-0.979-0.499-1.909-0.434-3.402-0.434zM14.934 3.965h2.133c1.493 0 2.057 0.070 2.219 0.152 0.257 0.131 0.467 0.337 0.598 0.594 0 0.001 0 0.001 0 0.002s0 0.001 0 0.002v-0c0.074 0.144 0.125 0.819 0.137 1.984h-8.039c0.012-1.166 0.063-1.84 0.137-1.984 0.131-0.257 0.336-0.467 0.594-0.598 0.001 0 0.001 0 0.002 0s0.001 0 0.002 0h-0c0.162-0.082 0.725-0.152 2.219-0.152zM7.965 9.301h16.070v13.633c0 2.24-0.069 3.178-0.297 3.625-0.259 0.508-0.672 0.921-1.18 1.18-0.447 0.228-1.385 0.297-3.625 0.297h-5.867c-2.24 0-3.178-0.069-3.625-0.297-0.508-0.259-0.921-0.672-1.18-1.18-0.228-0.447-0.297-1.385-0.297-3.625zM13.332 14.035c-0.716 0.002-1.295 0.581-1.297 1.297v6.668c0 0 0 0 0 0.001 0 0.717 0.58 1.298 1.297 1.3h0c0 0 0.001 0 0.001 0 0.718 0 1.3-0.582 1.3-1.3 0-0 0-0.001 0-0.001v0-6.668c-0.002-0.717-0.583-1.297-1.3-1.297-0 0-0.001 0-0.001 0h0zM18.668 14.035c-0 0-0 0-0.001 0-0.717 0-1.298 0.58-1.3 1.297v6.668c0 0 0 0 0 0.001 0 0.718 0.582 1.3 1.3 1.3 0 0 0.001 0 0.001 0h-0c0.717-0.002 1.297-0.583 1.297-1.3 0-0 0-0.001 0-0.001v0-6.668c-0.002-0.716-0.581-1.295-1.297-1.297h-0z"></path>
</symbol>
</defs>
</svg>